<svg xmlns="http://www.w3.org/2000/svg" width="42" height="42" viewBox="0 0 42 42">
  <g id="Group_140" data-name="Group 140" transform="translate(-4529 -142)">
    <rect id="Rectangle_41" data-name="Rectangle 41" width="42" height="42" transform="translate(4529 142)" fill="none"/>
    <g id="right-arrow_1_" data-name="right-arrow (1)" transform="translate(4559.889 157) rotate(90)">
      <g id="Group_31" data-name="Group 31" transform="translate(0 0)">
        <path id="Path_3" data-name="Path 3" d="M10.8,8.707,2.39.3A1.036,1.036,0,0,0,.929.3L.31.921a1.035,1.035,0,0,0,0,1.461L7.368,9.44.3,16.507a1.036,1.036,0,0,0,0,1.461l.619.619a1.035,1.035,0,0,0,1.461,0L10.8,10.174a1.043,1.043,0,0,0,0-1.466Z" transform="translate(0 0)" fill="#26c0b7"/>
      </g>
    </g>
  </g>
</svg>
