<svg id="Group_83" data-name="Group 83" xmlns="http://www.w3.org/2000/svg" width="12.458" height="16.367" viewBox="0 0 12.458 16.367">
  <path id="Path_15" data-name="Path 15" d="M62.578.421a.685.685,0,0,0-.745.113l-1.074.951a.077.077,0,0,1-.1,0L59.2.178a.7.7,0,0,0-.929,0l-1.46,1.306a.077.077,0,0,1-.1,0L55.244.178a.7.7,0,0,0-.929,0L52.854,1.484a.077.077,0,0,1-.1,0L51.677.534a.691.691,0,0,0-1.15.522V15.312a.692.692,0,0,0,1.152.522l1.074-.951a.077.077,0,0,1,.1,0l1.461,1.307a.7.7,0,0,0,.929,0l1.46-1.306a.077.077,0,0,1,.1,0l1.46,1.306a.7.7,0,0,0,.929,0l1.461-1.307a.077.077,0,0,1,.1,0l1.075.951a.691.691,0,0,0,1.15-.522V1.055A.685.685,0,0,0,62.578.421Zm-9.49,5.132h3.853a.31.31,0,0,1,0,.619H53.088a.31.31,0,0,1,0-.619Zm7.335,5.262H53.088a.31.31,0,0,1,0-.619h7.335a.31.31,0,0,1,0,.619Zm0-2.321H53.088a.31.31,0,0,1,0-.619h7.335a.31.31,0,0,1,0,.619Z" transform="translate(-50.526 0)" fill="#fff"/>
</svg>
