<svg xmlns="http://www.w3.org/2000/svg" width="24.208" height="21.183" viewBox="0 0 24.208 21.183">
  <g id="export" transform="translate(0 -31.998)">
    <g id="Group_56" data-name="Group 56" transform="translate(0 33.512)">
      <g id="Group_55" data-name="Group 55" transform="translate(0 0)">
        <path id="Path_6" data-name="Path 6" d="M16.643,74.64v6.005H3.026V67.028H7.565V64H1.513A1.514,1.514,0,0,0,0,65.515V82.158a1.513,1.513,0,0,0,1.513,1.513H18.156a1.512,1.512,0,0,0,1.513-1.513V74.64Z" transform="translate(0 -64.002)" fill="#00bec0"/>
      </g>
    </g>
    <g id="Group_58" data-name="Group 58" transform="translate(6.052 31.998)">
      <g id="Group_57" data-name="Group 57" transform="translate(0 0)">
        <path id="Path_7" data-name="Path 7" d="M145.854,36.689,139.8,32.15a.757.757,0,0,0-1.21.605v2.27h-2.27A8.331,8.331,0,0,0,128,43.346a.757.757,0,0,0,1.433.339l.179-.356a6.771,6.771,0,0,1,6.09-3.766h2.89v2.27a.757.757,0,0,0,1.21.605l6.052-4.539a.757.757,0,0,0,0-1.21Z" transform="translate(-128 -31.998)" fill="#00bec0"/>
      </g>
    </g>
  </g>
</svg>
