<svg xmlns="http://www.w3.org/2000/svg" width="15.399" height="15.401" viewBox="0 0 15.399 15.401">
  <path id="home" d="M14.985,6.7h0L8.7.415A1.417,1.417,0,0,0,6.7.415L.418,6.694.411,6.7a1.417,1.417,0,0,0,.944,2.416l.044,0h.25v4.623A1.661,1.661,0,0,0,3.309,15.4H5.766a.451.451,0,0,0,.451-.451V11.325a.758.758,0,0,1,.757-.757h1.45a.758.758,0,0,1,.757.757V14.95a.451.451,0,0,0,.451.451H12.09a1.661,1.661,0,0,0,1.659-1.659V9.118h.232a1.418,1.418,0,0,0,1-2.42Zm0,0" transform="translate(0)" fill="#fff"/>
</svg>
