<svg xmlns="http://www.w3.org/2000/svg" width="22.007" height="22.007" viewBox="0 0 22.007 22.007">
  <path id="close_1_" data-name="close (1)" d="M14.634,11,21.442,4.2a1.925,1.925,0,0,0,0-2.723L20.535.566a1.925,1.925,0,0,0-2.723,0L11,7.373,4.2.564a1.925,1.925,0,0,0-2.723,0l-.909.908a1.925,1.925,0,0,0,0,2.723L7.373,11,.566,17.812a1.925,1.925,0,0,0,0,2.723l.908.908a1.925,1.925,0,0,0,2.723,0L11,14.634l6.808,6.808a1.925,1.925,0,0,0,2.723,0l.908-.908a1.925,1.925,0,0,0,0-2.723Zm0,0" fill="#fff"/>
</svg>
