<svg id="spain" xmlns="http://www.w3.org/2000/svg" width="32.052" height="21" viewBox="0 0 32.052 21">
  <g id="Group_886" data-name="Group 886" transform="translate(0 0)">
    <path id="Path_170" data-name="Path 170" d="M0,355.124a2.4,2.4,0,0,0,2.4,2.4H29.652a2.4,2.4,0,0,0,2.4-2.4V353.1H0Z" transform="translate(0 -336.524)" fill="#c8414b"/>
    <path id="Path_171" data-name="Path 171" d="M29.652,88.276H2.4a2.4,2.4,0,0,0-2.4,2.4V92.7H32.052V90.676A2.4,2.4,0,0,0,29.652,88.276Z" transform="translate(0 -88.276)" fill="#c8414b"/>
  </g>
  <rect id="Rectangle_144" data-name="Rectangle 144" width="32.052" height="12.158" transform="translate(0 4.421)" fill="#ffd250"/>
  <path id="Path_172" data-name="Path 172" d="M209.147,218.762l.469-2.109a.311.311,0,0,0-.3-.378h-.33a.311.311,0,0,0-.3.378Z" transform="translate(-195.608 -208.262)" fill="#c8414b"/>
  <rect id="Rectangle_145" data-name="Rectangle 145" width="1.105" height="4.697" transform="translate(12.987 9.394)" fill="#f5f5f5"/>
  <rect id="Rectangle_146" data-name="Rectangle 146" width="1.658" height="0.553" transform="translate(12.71 8.842)" fill="#fab446"/>
  <g id="Group_887" data-name="Group 887" transform="translate(4.774 8.013)">
    <rect id="Rectangle_147" data-name="Rectangle 147" width="2.763" height="0.553" transform="translate(6.831 2.487)" fill="#c8414b"/>
    <path id="Path_173" data-name="Path 173" d="M204.692,274.76l-1.658-.553v-.553l1.658.553Z" transform="translate(-195.097 -270.063)" fill="#c8414b"/>
    <path id="Path_174" data-name="Path 174" d="M76.733,218.762l.469-2.109a.311.311,0,0,0-.3-.378h-.33a.311.311,0,0,0-.3.378Z" transform="translate(-76.257 -216.275)" fill="#c8414b"/>
  </g>
  <path id="Path_175" data-name="Path 175" d="M106.484,229.517a.553.553,0,0,0-.553.553v3.592c0,.671.627,1.934,2.763,1.934s2.763-1.263,2.763-1.934V230.07a.553.553,0,0,0-.553-.553Z" transform="translate(-99.299 -220.675)" fill="#f5f5f5"/>
  <g id="Group_888" data-name="Group 888" transform="translate(6.632 8.842)">
    <path id="Path_176" data-name="Path 176" d="M108.694,232.28h-2.763v-2.21a.553.553,0,0,1,.553-.553h2.21Z" transform="translate(-105.931 -229.517)" fill="#c8414b"/>
    <path id="Path_177" data-name="Path 177" d="M150.069,273.655h2.763v1.382a1.382,1.382,0,0,1-1.382,1.382h0a1.382,1.382,0,0,1-1.382-1.382Z" transform="translate(-147.306 -270.892)" fill="#c8414b"/>
  </g>
  <path id="Path_178" data-name="Path 178" d="M105.931,273.655h2.763v1.382a1.382,1.382,0,0,1-1.382,1.382h0a1.382,1.382,0,0,1-1.382-1.382Z" transform="translate(-99.299 -262.05)" fill="#fab446"/>
  <g id="Group_889" data-name="Group 889" transform="translate(7.184 11.605)">
    <path id="Path_179" data-name="Path 179" d="M132.966,276.136v-2.481h-.553v2.735A1.367,1.367,0,0,0,132.966,276.136Z" transform="translate(-131.308 -273.655)" fill="#c8414b"/>
    <path id="Path_180" data-name="Path 180" d="M115.311,276.39v-2.735h-.553v2.481A1.368,1.368,0,0,0,115.311,276.39Z" transform="translate(-114.758 -273.655)" fill="#c8414b"/>
  </g>
  <rect id="Rectangle_148" data-name="Rectangle 148" width="1.658" height="0.553" transform="translate(7.184 10.5)" fill="#ffb441"/>
  <g id="Group_890" data-name="Group 890" transform="translate(7.184 9.394)">
    <rect id="Rectangle_149" data-name="Rectangle 149" width="1.658" height="0.553" fill="#fab446"/>
    <rect id="Rectangle_150" data-name="Rectangle 150" width="1.105" height="1.001" transform="translate(0.276 0.329)" fill="#fab446"/>
  </g>
  <rect id="Rectangle_151" data-name="Rectangle 151" width="1.105" height="4.697" transform="translate(4.697 9.394)" fill="#f5f5f5"/>
  <g id="Group_891" data-name="Group 891" transform="translate(4.421 8.842)">
    <rect id="Rectangle_152" data-name="Rectangle 152" width="1.658" height="0.553" transform="translate(0 4.974)" fill="#fab446"/>
    <rect id="Rectangle_153" data-name="Rectangle 153" width="1.658" height="0.553" fill="#fab446"/>
  </g>
  <rect id="Rectangle_154" data-name="Rectangle 154" width="2.21" height="0.553" transform="translate(4.145 14.368)" fill="#5064aa"/>
  <rect id="Rectangle_155" data-name="Rectangle 155" width="1.658" height="0.553" transform="translate(12.987 13.816)" fill="#fab446"/>
  <rect id="Rectangle_156" data-name="Rectangle 156" width="2.21" height="0.553" transform="translate(12.434 14.368)" fill="#5064aa"/>
  <rect id="Rectangle_157" data-name="Rectangle 157" width="3.316" height="0.553" transform="translate(7.737 8.289)" fill="#fab446"/>
  <rect id="Rectangle_158" data-name="Rectangle 158" width="0.553" height="1.658" transform="translate(9.119 6.632)" fill="#ffb441"/>
  <g id="Group_892" data-name="Group 892" transform="translate(6.908 5.803)">
    <path id="Path_181" data-name="Path 181" d="M128.829,182.624a.829.829,0,1,1,.829-.829A.83.83,0,0,1,128.829,182.624Zm0-1.105a.276.276,0,1,0,.276.276A.277.277,0,0,0,128.829,181.519Z" transform="translate(-126.895 -180.966)" fill="#f5f5f5"/>
    <path id="Path_182" data-name="Path 182" d="M146.485,182.624a.829.829,0,1,1,.829-.829A.83.83,0,0,1,146.485,182.624Zm0-1.105a.276.276,0,1,0,.276.276A.277.277,0,0,0,146.485,181.519Z" transform="translate(-143.445 -180.966)" fill="#f5f5f5"/>
    <path id="Path_183" data-name="Path 183" d="M164.14,191.452a.829.829,0,1,1,.829-.829A.83.83,0,0,1,164.14,191.452Zm0-1.105a.276.276,0,1,0,.276.276A.277.277,0,0,0,164.14,190.347Z" transform="translate(-159.995 -189.241)" fill="#f5f5f5"/>
    <path id="Path_184" data-name="Path 184" d="M111.174,191.452a.829.829,0,1,1,.829-.829A.83.83,0,0,1,111.174,191.452Zm0-1.105a.276.276,0,1,0,.276.276A.277.277,0,0,0,111.174,190.347Z" transform="translate(-110.345 -189.241)" fill="#f5f5f5"/>
  </g>
  <path id="Path_185" data-name="Path 185" d="M160,283.036v.276a.276.276,0,0,1-.553,0v-.276H160m.553-.553H158.9v.829a.829.829,0,0,0,1.658,0v-.829Z" transform="translate(-148.949 -270.325)" fill="#fab446"/>
  <path id="Path_186" data-name="Path 186" d="M163.863,240h0a.553.553,0,0,1-.553-.553V238.9a.553.553,0,0,1,.553-.553h0a.553.553,0,0,1,.553.553v.553A.553.553,0,0,1,163.863,240Z" transform="translate(-153.086 -228.949)" fill="#ffa0d2"/>
  <ellipse id="Ellipse_4" data-name="Ellipse 4" cx="0.829" cy="0.829" rx="0.829" ry="0.829" transform="translate(8.566 10.776)" fill="#5064aa"/>
  <rect id="Rectangle_159" data-name="Rectangle 159" width="0.553" height="1.658" transform="translate(9.119 5.526)" fill="#fab446"/>
  <path id="Path_187" data-name="Path 187" d="M115.311,195.865l-.553-.553.324-.324a2.668,2.668,0,0,1,1.887-.782h0a2.669,2.669,0,0,1,1.887.782l.324.324-.553.553Z" transform="translate(-107.574 -187.575)" fill="#c8414b"/>
  <g id="Group_893" data-name="Group 893" transform="translate(8.013 7.46)">
    <ellipse id="Ellipse_5" data-name="Ellipse 5" cx="0.276" cy="0.276" rx="0.276" ry="0.276" transform="translate(1.106)" fill="#ffd250"/>
    <ellipse id="Ellipse_6" data-name="Ellipse 6" cx="0.276" cy="0.276" rx="0.276" ry="0.276" fill="#ffd250"/>
    <ellipse id="Ellipse_7" data-name="Ellipse 7" cx="0.276" cy="0.276" rx="0.276" ry="0.276" transform="translate(2.21)" fill="#ffd250"/>
  </g>
  <g id="Group_894" data-name="Group 894" transform="translate(4.421 10.5)">
    <rect id="Rectangle_160" data-name="Rectangle 160" width="2.763" height="0.553" fill="#c8414b"/>
    <path id="Path_188" data-name="Path 188" d="M70.621,274.76l1.658-.553v-.553l-1.658.553Z" transform="translate(-70.621 -272.55)" fill="#c8414b"/>
  </g>
</svg>
