<svg id="united-states" xmlns="http://www.w3.org/2000/svg" width="32.052" height="21" viewBox="0 0 32.052 21">
  <path id="Path_189" data-name="Path 189" d="M29.652,88.276H2.4a2.4,2.4,0,0,0-2.4,2.4v16.2a2.4,2.4,0,0,0,2.4,2.4H29.652a2.4,2.4,0,0,0,2.4-2.4v-16.2A2.4,2.4,0,0,0,29.652,88.276Z" transform="translate(0 -88.276)" fill="#f5f5f5"/>
  <g id="Group_895" data-name="Group 895" transform="translate(0 0)">
    <path id="Path_190" data-name="Path 190" d="M2.109,89.891H33.9a2.4,2.4,0,0,0-2.268-1.615H4.377A2.4,2.4,0,0,0,2.109,89.891Z" transform="translate(-1.977 -88.276)" fill="#ff4b55"/>
    <rect id="Rectangle_161" data-name="Rectangle 161" width="32.052" height="1.615" transform="translate(0 6.461)" fill="#ff4b55"/>
    <rect id="Rectangle_162" data-name="Rectangle 162" width="32.052" height="1.615" transform="translate(0 3.231)" fill="#ff4b55"/>
    <path id="Path_191" data-name="Path 191" d="M0,244.161a.553.553,0,0,0,.553.553h31.5V243.1H0Z" transform="translate(0 -233.406)" fill="#ff4b55"/>
    <rect id="Rectangle_163" data-name="Rectangle 163" width="32.052" height="1.615" transform="translate(0 16.154)" fill="#ff4b55"/>
    <path id="Path_192" data-name="Path 192" d="M33.9,397.92H2.109a2.4,2.4,0,0,0,2.268,1.615H31.629A2.4,2.4,0,0,0,33.9,397.92Z" transform="translate(-1.977 -378.536)" fill="#ff4b55"/>
    <rect id="Rectangle_164" data-name="Rectangle 164" width="32.052" height="1.615" transform="translate(0 12.923)" fill="#ff4b55"/>
  </g>
  <path id="Path_193" data-name="Path 193" d="M.553,99.583H14.368a.553.553,0,0,0,.553-.553v-10.2a.553.553,0,0,0-.553-.553H2.4a2.4,2.4,0,0,0-2.4,2.4V99.03A.553.553,0,0,0,.553,99.583Z" transform="translate(0 -88.275)" fill="#41479b"/>
  <g id="Group_896" data-name="Group 896" transform="translate(0.892 1.233)">
    <path id="Path_194" data-name="Path 194" d="M14.912,108l.122.367.387,0a.052.052,0,0,1,.031.094l-.311.23.117.369a.052.052,0,0,1-.08.058l-.315-.225-.315.225a.052.052,0,0,1-.08-.058l.117-.369-.311-.23a.052.052,0,0,1,.031-.094l.387,0,.122-.367A.052.052,0,0,1,14.912,108Z" transform="translate(-14.253 -107.968)" fill="#f5f5f5"/>
    <path id="Path_195" data-name="Path 195" d="M14.912,138.658l.122.367.387,0a.052.052,0,0,1,.031.094l-.311.23.117.369a.052.052,0,0,1-.08.058l-.315-.225-.315.225a.052.052,0,0,1-.08-.058l.117-.369-.311-.23a.052.052,0,0,1,.031-.094l.387,0,.122-.367A.052.052,0,0,1,14.912,138.658Z" transform="translate(-14.253 -136.704)" fill="#f5f5f5"/>
    <path id="Path_196" data-name="Path 196" d="M14.912,169.313l.122.367.387,0a.052.052,0,0,1,.031.094l-.311.23.117.369a.052.052,0,0,1-.08.058l-.315-.225-.315.225a.052.052,0,0,1-.08-.058l.117-.369-.311-.23a.052.052,0,0,1,.031-.094l.387,0,.122-.367A.052.052,0,0,1,14.912,169.313Z" transform="translate(-14.253 -165.439)" fill="#f5f5f5"/>
    <path id="Path_197" data-name="Path 197" d="M14.912,199.966l.122.367.387,0a.052.052,0,0,1,.031.094l-.311.23.117.369a.052.052,0,0,1-.08.058l-.315-.225-.315.225a.052.052,0,0,1-.08-.058l.117-.369-.311-.23a.052.052,0,0,1,.031-.094l.387,0,.122-.367A.052.052,0,0,1,14.912,199.966Z" transform="translate(-14.253 -194.174)" fill="#f5f5f5"/>
    <path id="Path_198" data-name="Path 198" d="M14.912,230.621l.122.367.387,0a.052.052,0,0,1,.031.094l-.311.23.117.369a.052.052,0,0,1-.08.058l-.315-.225-.315.225a.052.052,0,0,1-.08-.058l.117-.369-.311-.23a.052.052,0,0,1,.031-.094l.387,0,.122-.367A.052.052,0,0,1,14.912,230.621Z" transform="translate(-14.253 -222.909)" fill="#f5f5f5"/>
    <path id="Path_199" data-name="Path 199" d="M38.705,123.033l.122.367.387,0a.052.052,0,0,1,.031.094l-.311.23.117.369a.052.052,0,0,1-.08.058l-.315-.225-.315.225a.052.052,0,0,1-.08-.058l.117-.369-.311-.23a.052.052,0,0,1,.031-.094l.387,0,.122-.367A.052.052,0,0,1,38.705,123.033Z" transform="translate(-36.556 -122.057)" fill="#f5f5f5"/>
    <path id="Path_200" data-name="Path 200" d="M38.705,153.687l.122.367.387,0a.052.052,0,0,1,.031.094l-.311.23.117.369a.052.052,0,0,1-.08.058l-.315-.225-.315.225a.052.052,0,0,1-.08-.058l.117-.369-.311-.23a.052.052,0,0,1,.031-.094l.387,0,.122-.367A.052.052,0,0,1,38.705,153.687Z" transform="translate(-36.556 -150.792)" fill="#f5f5f5"/>
    <path id="Path_201" data-name="Path 201" d="M38.705,184.341l.122.367.387,0a.052.052,0,0,1,.031.094l-.311.23.117.369a.052.052,0,0,1-.08.058l-.315-.225-.315.225a.052.052,0,0,1-.08-.058l.117-.369-.311-.23a.052.052,0,0,1,.031-.094l.387,0,.122-.367A.052.052,0,0,1,38.705,184.341Z" transform="translate(-36.556 -179.527)" fill="#f5f5f5"/>
    <path id="Path_202" data-name="Path 202" d="M38.705,215l.122.367.387,0a.052.052,0,0,1,.031.094l-.311.23.117.369a.052.052,0,0,1-.08.058l-.315-.225-.315.225a.052.052,0,0,1-.08-.058l.117-.369-.311-.23a.052.052,0,0,1,.031-.094l.387,0,.122-.367A.052.052,0,0,1,38.705,215Z" transform="translate(-36.556 -208.262)" fill="#f5f5f5"/>
    <path id="Path_203" data-name="Path 203" d="M62.5,108l.122.367.387,0a.052.052,0,0,1,.031.094l-.311.23.117.369a.052.052,0,0,1-.08.058l-.315-.225-.315.225a.052.052,0,0,1-.08-.058l.117-.369-.311-.23a.052.052,0,0,1,.031-.094l.387,0L62.4,108A.052.052,0,0,1,62.5,108Z" transform="translate(-58.86 -107.968)" fill="#f5f5f5"/>
    <path id="Path_204" data-name="Path 204" d="M62.5,138.658l.122.367.387,0a.052.052,0,0,1,.031.094l-.311.23.117.369a.052.052,0,0,1-.08.058l-.315-.225-.315.225a.052.052,0,0,1-.08-.058l.117-.369-.311-.23a.052.052,0,0,1,.031-.094l.387,0,.122-.367A.052.052,0,0,1,62.5,138.658Z" transform="translate(-58.86 -136.703)" fill="#f5f5f5"/>
    <path id="Path_205" data-name="Path 205" d="M62.5,169.312l.122.367.387,0a.052.052,0,0,1,.031.094l-.311.23.117.369a.052.052,0,0,1-.08.058l-.315-.225-.315.225a.052.052,0,0,1-.08-.058l.117-.369-.311-.23a.052.052,0,0,1,.031-.094l.387,0,.122-.367A.052.052,0,0,1,62.5,169.312Z" transform="translate(-58.86 -165.439)" fill="#f5f5f5"/>
    <path id="Path_206" data-name="Path 206" d="M62.5,199.966l.122.367.387,0a.052.052,0,0,1,.031.094l-.311.23.117.369a.052.052,0,0,1-.08.058l-.315-.225-.315.225a.052.052,0,0,1-.08-.058l.117-.369-.311-.23a.052.052,0,0,1,.031-.094l.387,0,.122-.367A.052.052,0,0,1,62.5,199.966Z" transform="translate(-58.86 -194.174)" fill="#f5f5f5"/>
    <path id="Path_207" data-name="Path 207" d="M62.5,230.621l.122.367.387,0a.052.052,0,0,1,.031.094l-.311.23.117.369a.052.052,0,0,1-.08.058l-.315-.225-.315.225a.052.052,0,0,1-.08-.058l.117-.369-.311-.23a.052.052,0,0,1,.031-.094l.387,0,.122-.367A.052.052,0,0,1,62.5,230.621Z" transform="translate(-58.86 -222.909)" fill="#f5f5f5"/>
    <path id="Path_208" data-name="Path 208" d="M86.292,123.033l.122.367.387,0a.052.052,0,0,1,.031.094l-.311.23.117.369a.052.052,0,0,1-.08.058l-.315-.225-.315.225a.052.052,0,0,1-.08-.058l.117-.369-.311-.23a.052.052,0,0,1,.031-.094l.387,0,.122-.367A.052.052,0,0,1,86.292,123.033Z" transform="translate(-81.164 -122.057)" fill="#f5f5f5"/>
    <path id="Path_209" data-name="Path 209" d="M86.292,153.687l.122.367.387,0a.052.052,0,0,1,.031.094l-.311.23.117.369a.052.052,0,0,1-.08.058l-.315-.225-.315.225a.052.052,0,0,1-.08-.058l.117-.369-.311-.23a.052.052,0,0,1,.031-.094l.387,0,.122-.367A.052.052,0,0,1,86.292,153.687Z" transform="translate(-81.164 -150.792)" fill="#f5f5f5"/>
    <path id="Path_210" data-name="Path 210" d="M86.292,184.341l.122.367.387,0a.052.052,0,0,1,.031.094l-.311.23.117.369a.052.052,0,0,1-.08.058l-.315-.225-.315.225a.052.052,0,0,1-.08-.058l.117-.369-.311-.23a.052.052,0,0,1,.031-.094l.387,0,.122-.367A.052.052,0,0,1,86.292,184.341Z" transform="translate(-81.164 -179.527)" fill="#f5f5f5"/>
    <path id="Path_211" data-name="Path 211" d="M86.292,215l.122.367.387,0a.052.052,0,0,1,.031.094l-.311.23.117.369a.052.052,0,0,1-.08.058l-.315-.225-.315.225a.052.052,0,0,1-.08-.058l.117-.369-.311-.23a.052.052,0,0,1,.031-.094l.387,0,.122-.367A.052.052,0,0,1,86.292,215Z" transform="translate(-81.164 -208.262)" fill="#f5f5f5"/>
    <path id="Path_212" data-name="Path 212" d="M110.084,108l.122.367.387,0a.052.052,0,0,1,.031.094l-.311.23.117.369a.052.052,0,0,1-.08.058l-.315-.225-.315.225a.052.052,0,0,1-.08-.058l.117-.369-.311-.23a.052.052,0,0,1,.031-.094l.387,0,.122-.367A.052.052,0,0,1,110.084,108Z" transform="translate(-103.467 -107.968)" fill="#f5f5f5"/>
    <path id="Path_213" data-name="Path 213" d="M110.084,138.658l.122.367.387,0a.052.052,0,0,1,.031.094l-.311.23.117.369a.052.052,0,0,1-.08.058l-.315-.225-.315.225a.052.052,0,0,1-.08-.058l.117-.369-.311-.23a.052.052,0,0,1,.031-.094l.387,0,.122-.367A.052.052,0,0,1,110.084,138.658Z" transform="translate(-103.467 -136.703)" fill="#f5f5f5"/>
    <path id="Path_214" data-name="Path 214" d="M110.084,169.312l.122.367.387,0a.052.052,0,0,1,.031.094l-.311.23.117.369a.052.052,0,0,1-.08.058l-.315-.225-.315.225a.052.052,0,0,1-.08-.058l.117-.369-.311-.23a.052.052,0,0,1,.031-.094l.387,0,.122-.367A.052.052,0,0,1,110.084,169.312Z" transform="translate(-103.467 -165.439)" fill="#f5f5f5"/>
    <path id="Path_215" data-name="Path 215" d="M110.084,199.966l.122.367.387,0a.052.052,0,0,1,.031.094l-.311.23.117.369a.052.052,0,0,1-.08.058l-.315-.225-.315.225a.052.052,0,0,1-.08-.058l.117-.369-.311-.23a.052.052,0,0,1,.031-.094l.387,0,.122-.367A.052.052,0,0,1,110.084,199.966Z" transform="translate(-103.467 -194.174)" fill="#f5f5f5"/>
    <path id="Path_216" data-name="Path 216" d="M110.084,230.621l.122.367.387,0a.052.052,0,0,1,.031.094l-.311.23.117.369a.052.052,0,0,1-.08.058l-.315-.225-.315.225a.052.052,0,0,1-.08-.058l.117-.369-.311-.23a.052.052,0,0,1,.031-.094l.387,0,.122-.367A.052.052,0,0,1,110.084,230.621Z" transform="translate(-103.467 -222.909)" fill="#f5f5f5"/>
    <path id="Path_217" data-name="Path 217" d="M133.878,123.033l.122.367.387,0a.052.052,0,0,1,.031.094l-.311.23.117.369a.052.052,0,0,1-.08.058l-.315-.225-.315.225a.052.052,0,0,1-.08-.058l.117-.369-.311-.23a.052.052,0,0,1,.031-.094l.387,0,.122-.367A.052.052,0,0,1,133.878,123.033Z" transform="translate(-125.771 -122.057)" fill="#f5f5f5"/>
    <path id="Path_218" data-name="Path 218" d="M133.878,153.687l.122.367.387,0a.052.052,0,0,1,.031.094l-.311.23.117.369a.052.052,0,0,1-.08.058l-.315-.225-.315.225a.052.052,0,0,1-.08-.058l.117-.369-.311-.23a.052.052,0,0,1,.031-.094l.387,0,.122-.367A.052.052,0,0,1,133.878,153.687Z" transform="translate(-125.771 -150.792)" fill="#f5f5f5"/>
    <path id="Path_219" data-name="Path 219" d="M133.878,184.341l.122.367.387,0a.052.052,0,0,1,.031.094l-.311.23.117.369a.052.052,0,0,1-.08.058l-.315-.225-.315.225a.052.052,0,0,1-.08-.058l.117-.369-.311-.23a.052.052,0,0,1,.031-.094l.387,0,.122-.367A.052.052,0,0,1,133.878,184.341Z" transform="translate(-125.771 -179.527)" fill="#f5f5f5"/>
    <path id="Path_220" data-name="Path 220" d="M133.878,215l.122.367.387,0a.052.052,0,0,1,.031.094l-.311.23.117.369a.052.052,0,0,1-.08.058l-.315-.225-.315.225a.052.052,0,0,1-.08-.058l.117-.369-.311-.23a.052.052,0,0,1,.031-.094l.387,0,.122-.367A.052.052,0,0,1,133.878,215Z" transform="translate(-125.771 -208.262)" fill="#f5f5f5"/>
    <path id="Path_221" data-name="Path 221" d="M157.672,108l.122.367.387,0a.052.052,0,0,1,.031.094l-.311.23.117.369a.052.052,0,0,1-.08.058l-.315-.225-.315.225a.052.052,0,0,1-.08-.058l.117-.369-.311-.23a.052.052,0,0,1,.031-.094l.387,0,.122-.367A.052.052,0,0,1,157.672,108Z" transform="translate(-148.076 -107.968)" fill="#f5f5f5"/>
    <path id="Path_222" data-name="Path 222" d="M157.672,138.658l.122.367.387,0a.052.052,0,0,1,.031.094l-.311.23.117.369a.052.052,0,0,1-.08.058l-.315-.225-.315.225a.052.052,0,0,1-.08-.058l.117-.369-.311-.23a.052.052,0,0,1,.031-.094l.387,0,.122-.367A.052.052,0,0,1,157.672,138.658Z" transform="translate(-148.076 -136.703)" fill="#f5f5f5"/>
    <path id="Path_223" data-name="Path 223" d="M157.672,169.312l.122.367.387,0a.052.052,0,0,1,.031.094l-.311.23.117.369a.052.052,0,0,1-.08.058l-.315-.225-.315.225a.052.052,0,0,1-.08-.058l.117-.369-.311-.23a.052.052,0,0,1,.031-.094l.387,0,.122-.367A.052.052,0,0,1,157.672,169.312Z" transform="translate(-148.076 -165.439)" fill="#f5f5f5"/>
    <path id="Path_224" data-name="Path 224" d="M157.672,199.966l.122.367.387,0a.052.052,0,0,1,.031.094l-.311.23.117.369a.052.052,0,0,1-.08.058l-.315-.225-.315.225a.052.052,0,0,1-.08-.058l.117-.369-.311-.23a.052.052,0,0,1,.031-.094l.387,0,.122-.367A.052.052,0,0,1,157.672,199.966Z" transform="translate(-148.076 -194.174)" fill="#f5f5f5"/>
    <path id="Path_225" data-name="Path 225" d="M157.672,230.621l.122.367.387,0a.052.052,0,0,1,.031.094l-.311.23.117.369a.052.052,0,0,1-.08.058l-.315-.225-.315.225a.052.052,0,0,1-.08-.058l.117-.369-.311-.23a.052.052,0,0,1,.031-.094l.387,0,.122-.367A.052.052,0,0,1,157.672,230.621Z" transform="translate(-148.076 -222.909)" fill="#f5f5f5"/>
    <path id="Path_226" data-name="Path 226" d="M181.465,123.033l.122.367.387,0a.052.052,0,0,1,.031.094l-.311.23.117.369a.052.052,0,0,1-.08.058l-.315-.225-.315.225a.052.052,0,0,1-.08-.058l.117-.369-.311-.23a.052.052,0,0,1,.031-.094l.387,0,.122-.367A.052.052,0,0,1,181.465,123.033Z" transform="translate(-170.379 -122.057)" fill="#f5f5f5"/>
    <path id="Path_227" data-name="Path 227" d="M181.465,153.687l.122.367.387,0a.052.052,0,0,1,.031.094l-.311.23.117.369a.052.052,0,0,1-.08.058l-.315-.225-.315.225a.052.052,0,0,1-.08-.058l.117-.369-.311-.23a.052.052,0,0,1,.031-.094l.387,0,.122-.367A.052.052,0,0,1,181.465,153.687Z" transform="translate(-170.379 -150.792)" fill="#f5f5f5"/>
    <path id="Path_228" data-name="Path 228" d="M181.465,184.341l.122.367.387,0a.052.052,0,0,1,.031.094l-.311.23.117.369a.052.052,0,0,1-.08.058l-.315-.225-.315.225a.052.052,0,0,1-.08-.058l.117-.369-.311-.23a.052.052,0,0,1,.031-.094l.387,0,.122-.367A.052.052,0,0,1,181.465,184.341Z" transform="translate(-170.379 -179.527)" fill="#f5f5f5"/>
    <path id="Path_229" data-name="Path 229" d="M181.465,215l.122.367.387,0a.052.052,0,0,1,.031.094l-.311.23.117.369a.052.052,0,0,1-.08.058l-.315-.225-.315.225a.052.052,0,0,1-.08-.058l.117-.369-.311-.23a.052.052,0,0,1,.031-.094l.387,0,.122-.367A.052.052,0,0,1,181.465,215Z" transform="translate(-170.379 -208.262)" fill="#f5f5f5"/>
    <path id="Path_230" data-name="Path 230" d="M205.259,108l.122.367.387,0a.052.052,0,0,1,.031.094l-.311.23.117.369a.052.052,0,0,1-.08.058l-.315-.225-.315.225a.052.052,0,0,1-.08-.058l.117-.369-.311-.23a.052.052,0,0,1,.031-.094l.387,0,.122-.367A.052.052,0,0,1,205.259,108Z" transform="translate(-192.683 -107.968)" fill="#f5f5f5"/>
    <path id="Path_231" data-name="Path 231" d="M205.259,138.658l.122.367.387,0a.052.052,0,0,1,.031.094l-.311.23.117.369a.052.052,0,0,1-.08.058l-.315-.225-.315.225a.052.052,0,0,1-.08-.058l.117-.369-.311-.23a.052.052,0,0,1,.031-.094l.387,0,.122-.367A.052.052,0,0,1,205.259,138.658Z" transform="translate(-192.683 -136.703)" fill="#f5f5f5"/>
    <path id="Path_232" data-name="Path 232" d="M205.259,169.312l.122.367.387,0a.052.052,0,0,1,.031.094l-.311.23.117.369a.052.052,0,0,1-.08.058l-.315-.225-.315.225a.052.052,0,0,1-.08-.058l.117-.369-.311-.23a.052.052,0,0,1,.031-.094l.387,0,.122-.367A.052.052,0,0,1,205.259,169.312Z" transform="translate(-192.683 -165.439)" fill="#f5f5f5"/>
    <path id="Path_233" data-name="Path 233" d="M205.259,199.966l.122.367.387,0a.052.052,0,0,1,.031.094l-.311.23.117.369a.052.052,0,0,1-.08.058l-.315-.225-.315.225a.052.052,0,0,1-.08-.058l.117-.369-.311-.23a.052.052,0,0,1,.031-.094l.387,0,.122-.367A.052.052,0,0,1,205.259,199.966Z" transform="translate(-192.683 -194.174)" fill="#f5f5f5"/>
    <path id="Path_234" data-name="Path 234" d="M205.259,230.621l.122.367.387,0a.052.052,0,0,1,.031.094l-.311.23.117.369a.052.052,0,0,1-.08.058l-.315-.225-.315.225a.052.052,0,0,1-.08-.058l.117-.369-.311-.23a.052.052,0,0,1,.031-.094l.387,0,.122-.367A.052.052,0,0,1,205.259,230.621Z" transform="translate(-192.683 -222.909)" fill="#f5f5f5"/>
  </g>
</svg>
