<svg id="scanner" xmlns="http://www.w3.org/2000/svg" width="14.384" height="10.956" viewBox="0 0 14.384 10.956">
  <g id="Group_685" data-name="Group 685">
    <path id="Path_134" data-name="Path 134" d="M452.879,82.922a2.459,2.459,0,0,1,0,3.473l.6.6a3.3,3.3,0,0,0,0-4.665Z" transform="translate(-440.056 -81.709)" fill="#233645"/>
    <path id="Path_135" data-name="Path 135" d="M411.384,124.417l-.6.6a.771.771,0,0,1,0,1.09l.6.6A1.615,1.615,0,0,0,411.384,124.417Z" transform="translate(-399.157 -122.608)" fill="#233645"/>
    <path id="Path_136" data-name="Path 136" d="M263.471,60.524l-1.967,5.9h1.777l1.967-5.9Z" transform="translate(-254.1 -60.524)" fill="#233645"/>
    <path id="Path_137" data-name="Path 137" d="M46.383,298.653h-.888l-.281.843h-.987l.281-.843H41.88l-.835,2.558a1.264,1.264,0,0,0,1.2,1.656H43.1l.843-2.528h1.875Z" transform="translate(-39.821 -291.911)" fill="#233645"/>
    <path id="Path_138" data-name="Path 138" d="M2.107,66.424H6.516l1.967-5.9H2.107A2.107,2.107,0,0,0,0,62.631v1.686a2.107,2.107,0,0,0,2.107,2.107Z" transform="translate(0 -60.524)" fill="#233645"/>
  </g>
</svg>
