<svg xmlns="http://www.w3.org/2000/svg" width="13.971" height="13.972" viewBox="0 0 13.971 13.972">
  <path id="home" d="M13.6,6.077h0l-5.7-5.7a1.286,1.286,0,0,0-1.819,0l-5.7,5.7-.006.006A1.286,1.286,0,0,0,1.229,8.27l.04,0H1.5v4.194A1.507,1.507,0,0,0,3,13.972h2.23a.409.409,0,0,0,.409-.409V10.274a.688.688,0,0,1,.687-.687H7.643a.688.688,0,0,1,.687.687v3.288a.409.409,0,0,0,.409.409h2.23a1.507,1.507,0,0,0,1.506-1.505V8.272h.211a1.286,1.286,0,0,0,.91-2.2Zm0,0" transform="translate(0.001)" fill="#233645"/>
</svg>
