<svg xmlns="http://www.w3.org/2000/svg" width="12.894" height="14.053" viewBox="0 0 12.894 14.053">
  <path id="weight" d="M25.247,13.226,23.755,4.9a.7.7,0,0,0-.692-.579H20.581a2.525,2.525,0,1,0-3.541,0H14.559a.7.7,0,0,0-.692.579l-1.492,8.324a.7.7,0,0,0,.692.827H24.555a.7.7,0,0,0,.692-.827ZM18.811,1.406a1.119,1.119,0,1,1-1.119,1.119A1.12,1.12,0,0,1,18.811,1.406Zm-.184,9.475a.209.209,0,0,1-.184.11h-.332a.209.209,0,0,1-.181-.1l-.821-1.4-.525.536v.645a.324.324,0,1,1-.647,0V8.107a.324.324,0,1,1,.647,0v1.1l1.246-1.356a.209.209,0,0,1,.154-.068h.285a.209.209,0,0,1,.151.355l-.864.894,1.063,1.634A.21.21,0,0,1,18.627,10.881Zm3.189-.427a.21.21,0,0,1-.079.164,1.948,1.948,0,0,1-.511.278,2.146,2.146,0,0,1-.782.15,1.755,1.755,0,0,1-.877-.211,1.342,1.342,0,0,1-.562-.6,1.95,1.95,0,0,1-.188-.854,1.845,1.845,0,0,1,.21-.89,1.414,1.414,0,0,1,.615-.6,1.658,1.658,0,0,1,.768-.16,1.532,1.532,0,0,1,.933.25,1.093,1.093,0,0,1,.246.253.33.33,0,0,1-.21.513h0a.32.32,0,0,1-.33-.144.66.66,0,0,0-.171-.183.771.771,0,0,0-.467-.137.877.877,0,0,0-.675.269,1.134,1.134,0,0,0-.25.8,1.255,1.255,0,0,0,.254.856.847.847,0,0,0,.665.285,1.115,1.115,0,0,0,.408-.08,1.4,1.4,0,0,0,.351-.194V9.811h-.471a.27.27,0,0,1,0-.54h.916a.209.209,0,0,1,.209.209Z" transform="translate(-12.364)" fill="#233645"/>
</svg>
