<svg xmlns="http://www.w3.org/2000/svg" width="14.525" height="13.5" viewBox="0 0 14.525 13.5">
  <path id="Path_133" data-name="Path 133" d="M13.4,21.351H11.855v-2.8a.484.484,0,0,0-.484-.484H3.154a.484.484,0,0,0-.484.484v2.8H1.13A1.131,1.131,0,0,0,0,22.481v4.871a1.131,1.131,0,0,0,1.13,1.13H2.67v2.6a.484.484,0,0,0,.484.484H11.37a.484.484,0,0,0,.484-.484v-2.6H13.4a1.131,1.131,0,0,0,1.13-1.13V22.481A1.131,1.131,0,0,0,13.4,21.351ZM3.639,19.033h7.248v2.318H3.639ZM10.886,30.6H3.639V26.636h7.248C10.886,26.756,10.886,30.506,10.886,30.6Zm.484-6.4H10.138a.484.484,0,1,1,0-.968h1.232a.484.484,0,0,1,0,.968Z" transform="translate(0 -18.065)" fill="#233645"/>
</svg>
