<svg id="refresh" xmlns="http://www.w3.org/2000/svg" width="13.818" height="13.818" viewBox="0 0 13.818 13.818">
  <path id="Path_140" data-name="Path 140" d="M1.66,7.546a5.467,5.467,0,0,1-.04-.637,5.268,5.268,0,0,1,8.839-3.894l-.467.475a.414.414,0,0,0-.105.4.424.424,0,0,0,.308.275c.081.016,2.759.879,2.588.845a.409.409,0,0,0,.478-.478c-.016-.082-.609-3.055-.575-2.885a.4.4,0,0,0-.68-.2l-.4.389A6.914,6.914,0,0,0,0,6.909v.016c0,.228.01.4.023.54a.4.4,0,0,0,.324.361l.832.166A.405.405,0,0,0,1.66,7.546Zm0,0" fill="#233645"/>
  <path id="Path_141" data-name="Path 141" d="M33.367,215.6l-.834-.17a.405.405,0,0,0-.483.446,5.511,5.511,0,0,1,.042.641,5.261,5.261,0,0,1-8.839,3.886l.467-.467a.414.414,0,0,0,.105-.4.423.423,0,0,0-.308-.275c-.081-.016-2.759-.879-2.588-.845a.4.4,0,0,0-.364.113.4.4,0,0,0-.113.364l.575,2.858a.405.405,0,0,0,.283.308.389.389,0,0,0,.4-.105l.389-.389a6.9,6.9,0,0,0,11.616-5.044v-.024c0-.179-.007-.356-.022-.531A.4.4,0,0,0,33.367,215.6Zm0,0" transform="translate(-19.893 -209.608)" fill="#233645"/>
</svg>
