<svg xmlns="http://www.w3.org/2000/svg" width="22" height="22" viewBox="0 0 22 22">
  <g id="Group_721" data-name="Group 721" transform="translate(-16300 -5729)">
    <rect id="Rectangle_120" data-name="Rectangle 120" width="22" height="22" transform="translate(16300 5729)" fill="none"/>
    <g id="pencil_1_" data-name="pencil (1)" transform="translate(16301.957 5730.967)">
      <path id="Path_43" data-name="Path 43" d="M11.168,82.473,1.218,92.424a.4.4,0,0,0-.1.182l-1.1,4.427a.391.391,0,0,0,.475.475l4.427-1.1a.391.391,0,0,0,.182-.1l9.952-9.951Zm0,0" transform="translate(0 -79.453)" fill="#26c0b7"/>
      <path id="Path_44" data-name="Path 44" d="M339.563,1.909,338.455.8a2.006,2.006,0,0,0-2.77,0l-1.357,1.357,3.878,3.878,1.357-1.357a1.959,1.959,0,0,0,0-2.77Zm0,0" transform="translate(-322.051 -0.247)" fill="#26c0b7"/>
    </g>
  </g>
</svg>
