<svg xmlns="http://www.w3.org/2000/svg" width="22" height="22" viewBox="0 0 22 22">
  <g id="Group_721" data-name="Group 721" transform="translate(-16362 -5739)">
    <rect id="Rectangle_120" data-name="Rectangle 120" width="22" height="22" transform="translate(16362 5739)" fill="none"/>
    <path id="home" d="M17.516,7.83h0L10.171.486a1.657,1.657,0,0,0-2.344,0L.488,7.825l-.007.008a1.656,1.656,0,0,0,1.1,2.823l.051,0h.293v5.4A1.942,1.942,0,0,0,3.867,18H6.74a.527.527,0,0,0,.527-.527V13.237a.886.886,0,0,1,.885-.885H9.847a.886.886,0,0,1,.885.885v4.237a.527.527,0,0,0,.527.527h2.873a1.942,1.942,0,0,0,1.94-1.939v-5.4h.271A1.657,1.657,0,0,0,17.516,7.83Zm0,0" transform="translate(16364.001 5741)" fill="#fff"/>
  </g>
</svg>
