<svg xmlns="http://www.w3.org/2000/svg" width="22" height="22" viewBox="0 0 22 22">
  <g id="Group_721" data-name="Group 721" transform="translate(-16300 -5729)">
    <rect id="Rectangle_120" data-name="Rectangle 120" width="22" height="22" transform="translate(16300 5729)" fill="none"/>
    <g id="invoice" transform="translate(16304 5731)">
      <g id="Group_652" data-name="Group 652" transform="translate(0 0)">
        <path id="Path_125" data-name="Path 125" d="M63.843.465a.757.757,0,0,0-.824.125L61.833,1.641a.085.085,0,0,1-.113,0L60.105.2a.769.769,0,0,0-1.026,0L57.466,1.639a.085.085,0,0,1-.114,0L55.739.2a.769.769,0,0,0-1.026,0L53.1,1.64a.086.086,0,0,1-.114,0L51.8.59a.763.763,0,0,0-1.271.576V16.92A.765.765,0,0,0,51.8,17.5l1.187-1.051a.085.085,0,0,1,.113,0l1.614,1.444a.769.769,0,0,0,1.026,0l1.613-1.443a.086.086,0,0,1,.114,0L59.08,17.89a.769.769,0,0,0,1.026,0l1.615-1.444a.086.086,0,0,1,.114,0L63.022,17.5a.763.763,0,0,0,1.271-.576V1.166A.757.757,0,0,0,63.843.465ZM53.357,6.136h4.257a.342.342,0,1,1,0,.684H53.357a.342.342,0,1,1,0-.684Zm8.105,5.814H53.357a.342.342,0,1,1,0-.684h8.105a.342.342,0,1,1,0,.684Zm0-2.565H53.357a.342.342,0,1,1,0-.684h8.105a.342.342,0,1,1,0,.684Z" transform="translate(-50.526 0)" fill="#fff"/>
      </g>
    </g>
  </g>
</svg>
