<svg id="close" xmlns="http://www.w3.org/2000/svg" width="10" height="9.999" viewBox="0 0 10 9.999">
  <path id="Path_122" data-name="Path 122" d="M9.744,8.453,1.907.616a.875.875,0,0,0-1.237,0l-.413.412a.875.875,0,0,0,0,1.237L8.093,10.1a.875.875,0,0,0,1.237,0l.412-.412A.874.874,0,0,0,9.744,8.453Zm0,0" transform="translate(0 -0.359)" fill="#f9a19b"/>
  <path id="Path_123" data-name="Path 123" d="M8.093.619.256,8.456a.875.875,0,0,0,0,1.237l.412.412a.875.875,0,0,0,1.237,0L9.744,2.269a.874.874,0,0,0,0-1.237L9.331.619A.875.875,0,0,0,8.093.619Zm0,0" transform="translate(0 -0.362)" fill="#f9a19b"/>
</svg>
