<svg xmlns="http://www.w3.org/2000/svg" width="22" height="22" viewBox="0 0 22 22">
  <g id="Group_721" data-name="Group 721" transform="translate(-16300 -5729)">
    <rect id="Rectangle_120" data-name="Rectangle 120" width="22" height="22" transform="translate(16300 5729)" fill="none"/>
    <g id="copy" transform="translate(16302 5731)">
      <path id="Path_132" data-name="Path 132" d="M7.67,16.053a3.244,3.244,0,0,1-3.24-3.24V5H3.1A2.1,2.1,0,0,0,1,7.1v10.29a2.1,2.1,0,0,0,2.1,2.1h9.528a2.1,2.1,0,0,0,2.1-2.1V16.053Z" transform="translate(0 -1.189)" fill="#26c0b7"/>
      <path id="Path_133" data-name="Path 133" d="M19.2,2.1A2.1,2.1,0,0,0,17.1,0h-8A2.1,2.1,0,0,0,7,2.1v9.528a2.1,2.1,0,0,0,2.1,2.1h8a2.1,2.1,0,0,0,2.1-2.1Z" transform="translate(-1.427)" fill="#26c0b7"/>
    </g>
  </g>
</svg>
