<svg xmlns="http://www.w3.org/2000/svg" width="22" height="22" viewBox="0 0 22 22">
  <g id="Group_721" data-name="Group 721" transform="translate(-16298 -5729)">
    <rect id="Rectangle_120" data-name="Rectangle 120" width="22" height="22" transform="translate(16298 5729)" fill="none"/>
    <g id="supplies" transform="translate(16297.478 5731)">
      <g id="Group_576" data-name="Group 576" transform="translate(15.047 13.241)">
        <g id="Group_575" data-name="Group 575" transform="translate(0)">
          <path id="Path_119" data-name="Path 119" d="M402.528,412.557a.528.528,0,0,0-.722-.193l-1.921,1.109a.528.528,0,1,0,.528.915l1.921-1.109A.528.528,0,0,0,402.528,412.557Z" transform="translate(-399.621 -412.293)" fill="#26c0b7"/>
        </g>
      </g>
      <g id="Group_578" data-name="Group 578" transform="translate(2.522 0)">
        <g id="Group_577" data-name="Group 577" transform="translate(0 0)">
          <path id="Path_120" data-name="Path 120" d="M20.824,10.507a.357.357,0,0,0,0-.044v0a.364.364,0,0,0-.008-.039l0-.011c0-.011-.007-.021-.011-.031l0-.011a.367.367,0,0,0-.019-.038h0a.364.364,0,0,0-.024-.035l-.007-.009-.022-.025-.008-.008a.356.356,0,0,0-.03-.027l0,0a.362.362,0,0,0-.037-.025l0,0L16.43,7.764V2.9s0,0,0,0a.36.36,0,0,0,0-.045v0a.355.355,0,0,0-.008-.04l0-.01c0-.011-.007-.022-.011-.032l0-.01a.333.333,0,0,0-.043-.075l-.007-.009-.022-.025-.008-.008a.365.365,0,0,0-.03-.027l0,0a.365.365,0,0,0-.037-.025l0,0L11.854.049a.363.363,0,0,0-.363,0L7.1,2.586l0,0a.361.361,0,0,0-.037.025h0a.363.363,0,0,0-.031.027l-.008.008L7,2.674l-.007.009a.335.335,0,0,0-.043.075l0,.01q-.006.016-.011.032l0,.011a.362.362,0,0,0-.008.04v0a.359.359,0,0,0,0,.044s0,0,0,0V7.764L2.7,10.2l0,0a.355.355,0,0,0-.037.025h0a.351.351,0,0,0-.031.027l-.008.008-.022.025-.007.009a.364.364,0,0,0-.024.036h0a.36.36,0,0,0-.019.039l0,.011c0,.01-.008.021-.011.031l0,.011a.357.357,0,0,0-.008.039v0a.359.359,0,0,0,0,.044s0,0,0,0v5.074h0A.363.363,0,0,0,2.7,15.9L7.1,18.435h0a.365.365,0,0,0,.04.02h0l.038.013.011,0,.033.006.011,0,.043,0,.043,0,.011,0,.033-.006.011,0,.038-.013h0a.356.356,0,0,0,.04-.02h0L11.673,16l4.213,2.432h0a.361.361,0,0,0,.04.02h0l.038.013.011,0,.033.006.011,0,.043,0,.043,0,.011,0,.033-.006.011,0,.038-.013h0a.367.367,0,0,0,.04-.02h0L20.642,15.9a.363.363,0,0,0,.181-.314V10.511A.024.024,0,0,0,20.824,10.507ZM17.543,9.245l-3.669,2.118L12.4,10.511l3.669-2.118ZM15.7,7.764,12.036,9.882V5.646L15.7,3.528ZM11.673.782l1.476.852L9.48,3.752,8,2.9ZM7.279,8.393l1.476.852L5.086,11.362,3.61,10.511Zm-.363,9.1L3.247,15.375V11.139l1.563.9a.361.361,0,0,0,.175.1l1.931,1.115Zm.363-4.865-1.468-.847L9.48,9.663l1.468.847Zm4.031,2.747L7.642,17.493V13.257l3.669-2.118Zm0-5.493L7.642,7.764V3.528l1.562.9a.361.361,0,0,0,.176.1L11.31,5.646V9.882Zm-1.1-5.712,3.669-2.118,1.467.847L11.673,5.018Zm5.5,13.323-3.668-2.118V11.139l1.563.9a.362.362,0,0,0,.175.1L15.7,13.257v4.236Zm.363-4.865L14.6,11.781l3.669-2.118,1.468.847ZM20.1,15.375,16.43,17.493V13.257L20.1,11.139Z" transform="translate(-2.522 0)" fill="#26c0b7"/>
        </g>
      </g>
      <g id="Group_580" data-name="Group 580" transform="translate(18.308 14.142)">
        <g id="Group_579" data-name="Group 579">
          <path id="Path_121" data-name="Path 121" d="M462.147,399.171a.529.529,0,0,0,0,1.057A.529.529,0,0,0,462.147,399.171Z" transform="translate(-461.637 -399.171)" fill="#26c0b7"/>
        </g>
      </g>
    </g>
  </g>
</svg>
