<svg id="Group_535" data-name="Group 535" xmlns="http://www.w3.org/2000/svg" width="49.034" height="38.308" viewBox="0 0 49.034 38.308">
  <path id="Path_79" data-name="Path 79" d="M580.759,252.116a.958.958,0,1,0-.958-.958.958.958,0,0,0,.958.958Zm0,0" transform="translate(-557.678 -238.709)" fill="#2e4050"/>
  <path id="Path_80" data-name="Path 80" d="M395.958,156.116H404.4l6.106,25.591a3.823,3.823,0,0,0,1.82,2.609,4.788,4.788,0,1,0,7.193.529h7.667a4.789,4.789,0,1,0,7.656,0h1.918a.958.958,0,1,0,0-1.915H414.27a1.912,1.912,0,0,1-1.886-1.585c0-.019-.008-.038-.012-.058l-.522-2.188h24.1a2.869,2.869,0,0,0,2.726-1.965l1.484-4.451a0,0,0,0,0,0,0l1.914-5.743a0,0,0,0,0,0,0l1.909-5.727a.958.958,0,0,0-.908-1.261h-35.8l-1.2-5.011a.957.957,0,0,0-.931-.736h-9.194a.958.958,0,0,0,0,1.915Zm22.6,31.6a2.873,2.873,0,1,1-2.873-2.873,2.876,2.876,0,0,1,2.873,2.873Zm15.323,0a2.873,2.873,0,1,1-2.873-2.873,2.876,2.876,0,0,1,2.873,2.873Zm-23.4-14.365h7.543l.426,3.831h-7.055Zm9.9,3.831-.426-3.831h9l-.426,3.831Zm15.575,0h-5.5l.426-3.831h7.04l-1.059,3.176a.956.956,0,0,1-.909.655Zm2.607-5.746H431.09l.425-3.831h8.317Zm1.915-5.746h-8.743l.425-3.831h9.594Zm-23.726-3.831.119,1.072a.957.957,0,0,0,.951.852.915.915,0,0,0,.107-.006.957.957,0,0,0,.846-1.057l-.1-.861h11.555l-.426,3.831h-7.89a.958.958,0,1,0,0,1.915h7.677l-.426,3.831h-9.426l-.123-1.107a.958.958,0,0,0-1.9.211l.1.9h-7.787l-.914-3.831h5.143a.958.958,0,0,0,0-1.915h-5.6l-.914-3.831Zm0,0" transform="translate(-395 -154.201)" fill="#2e4050"/>
</svg>
