<svg xmlns="http://www.w3.org/2000/svg" width="22" height="22" viewBox="0 0 22 22">
  <g id="Group_721" data-name="Group 721" transform="translate(-16271 -5729)">
    <rect id="Rectangle_120" data-name="Rectangle 120" width="22" height="22" transform="translate(16271 5729)" fill="none"/>
    <g id="dollar-symbol" transform="translate(16278 5732)">
      <path id="Path_67" data-name="Path 67" d="M122.635,6.826a18.092,18.092,0,0,0-1.837-.832,4.125,4.125,0,0,1-1.009-.565.877.877,0,0,1,.217-1.561,1.771,1.771,0,0,1,.618-.127,4.688,4.688,0,0,1,2.321.459c.366.177.487.121.611-.261.13-.4.239-.813.36-1.22a.426.426,0,0,0-.276-.568,5.9,5.9,0,0,0-1.465-.438c-.664-.1-.664-.106-.667-.773,0-.94,0-.94-.947-.94-.137,0-.273,0-.41,0-.441.012-.515.09-.528.534-.006.2,0,.4,0,.6,0,.59-.006.58-.571.785a3.149,3.149,0,0,0-2.3,2.917,2.99,2.99,0,0,0,1.691,2.858,18.7,18.7,0,0,0,2.114.95,3.139,3.139,0,0,1,.77.453,1.055,1.055,0,0,1-.251,1.85,2.531,2.531,0,0,1-1.356.177,6.053,6.053,0,0,1-2.067-.618c-.382-.2-.493-.146-.624.267-.112.357-.211.717-.31,1.077-.133.484-.084.6.379.826a6.6,6.6,0,0,0,1.862.534c.5.081.518.1.524.624,0,.236,0,.475.006.711a.422.422,0,0,0,.453.478c.348.006.7.006,1.046,0a.4.4,0,0,0,.431-.45c0-.323.016-.649,0-.971a.513.513,0,0,1,.444-.583,3.507,3.507,0,0,0,1.828-1.173A3.3,3.3,0,0,0,122.635,6.826Z" transform="translate(-116.652 0)" fill="#fff"/>
    </g>
  </g>
</svg>
