<svg xmlns="http://www.w3.org/2000/svg" width="22" height="22" viewBox="0 0 22 22">
  <g id="Group_721" data-name="Group 721" transform="translate(-16174 -5729)">
    <rect id="Rectangle_120" data-name="Rectangle 120" width="22" height="22" transform="translate(16174 5729)" fill="none"/>
    <path id="floppy-disk" d="M17.257,2.281l-1.4-1.4A3.02,3.02,0,0,0,13.723,0H2.079A2.079,2.079,0,0,0,0,2.079V16.064a2.079,2.079,0,0,0,2.079,2.079H16.064a2.079,2.079,0,0,0,2.079-2.079V4.419A3.02,3.02,0,0,0,17.257,2.281ZM3.024,4.725V2.835a.567.567,0,0,1,.567-.567h7.937a.567.567,0,0,1,.567.567v1.89a.567.567,0,0,1-.567.567H3.591A.567.567,0,0,1,3.024,4.725ZM9.071,15.119a3.4,3.4,0,1,1,3.4-3.4A3.4,3.4,0,0,1,9.071,15.119Zm0,0" transform="translate(16176 5731)" fill="#fff"/>
  </g>
</svg>
