<svg xmlns="http://www.w3.org/2000/svg" width="22" height="22" viewBox="0 0 22 22">
  <g id="Group_721" data-name="Group 721" transform="translate(-16241 -5729)">
    <rect id="Rectangle_120" data-name="Rectangle 120" width="22" height="22" transform="translate(16241 5729)" fill="none"/>
    <g id="Group_722" data-name="Group 722" transform="translate(16245 5732)">
      <g id="Group_428" data-name="Group 428">
        <path id="Path_68" data-name="Path 68" d="M415.182,376.843a.588.588,0,0,0-.822.121c-.107.143-.221.284-.339.418a.588.588,0,1,0,.881.778c.14-.159.275-.325.4-.495A.588.588,0,0,0,415.182,376.843Z" transform="translate(-401.712 -365.657)" fill="#fff"/>
        <path id="Path_69" data-name="Path 69" d="M463.377,286.438a.588.588,0,0,0-.7.449c-.038.174-.084.349-.137.52a.588.588,0,1,0,1.123.347c.063-.2.117-.41.162-.616A.588.588,0,0,0,463.377,286.438Z" transform="translate(-448.925 -278.008)" fill="#fff"/>
        <path id="Path_70" data-name="Path 70" d="M334.852,442.268c-.156.087-.318.168-.48.242a.588.588,0,1,0,.484,1.071c.193-.087.384-.184.569-.287a.588.588,0,1,0-.573-1.026Z" transform="translate(-324.211 -429.2)" fill="#fff"/>
        <path id="Path_71" data-name="Path 71" d="M159.131,76.588v4.458L156.976,83.2a.588.588,0,0,0,.831.831l2.327-2.327a.588.588,0,0,0,.172-.416v-4.7a.588.588,0,1,0-1.175,0Z" transform="translate(-152.196 -73.767)" fill="#fff"/>
        <path id="Path_72" data-name="Path 72" d="M14.457,1.263a.588.588,0,0,0-.588.588V3.483A7.523,7.523,0,1,0,7.522,15.044h.029c.212,0,.426-.009.636-.027a.588.588,0,1,0-.1-1.171c-.178.015-.358.022-.538.022H7.522A6.347,6.347,0,1,1,12.986,4.29H11.37a.588.588,0,0,0,0,1.175h1.794a1.869,1.869,0,0,0,.978-.275.587.587,0,0,0,.053-.034,1.88,1.88,0,0,0,.85-1.572V1.851A.588.588,0,0,0,14.457,1.263Z" fill="#fff"/>
      </g>
    </g>
  </g>
</svg>
