<svg xmlns="http://www.w3.org/2000/svg" width="22" height="22" viewBox="0 0 22 22">
  <g id="Group_721" data-name="Group 721" transform="translate(-16300 -5729)">
    <rect id="Rectangle_120" data-name="Rectangle 120" width="22" height="22" transform="translate(16300 5729)" fill="none"/>
    <g id="document" transform="translate(16302 5731)">
      <path id="Path_128" data-name="Path 128" d="M2.73,483.021H15.056A2.544,2.544,0,0,1,14.6,482H1.285a1.535,1.535,0,0,0,1.445,1.021Z" transform="translate(-1.285 -465.589)" fill="#fff"/>
      <path id="Path_129" data-name="Path 129" d="M118.715,15.389H129V15.9a1.532,1.532,0,0,0,3.064,0V0H118.715Zm3.064-10.248H129V6.162h-7.218Zm0,2.043H129V8.205h-7.218Zm0,2.043H129v1.021h-7.218Z" transform="translate(-114.717 0)" fill="#fff"/>
    </g>
  </g>
</svg>
