<svg xmlns="http://www.w3.org/2000/svg" width="30.157" height="39.221" viewBox="0 0 30.157 39.221">
  <g id="Group_541" data-name="Group 541" transform="translate(-865.658 -153.69)">
    <path id="Path_102" data-name="Path 102" d="M893.361,154.985h-1.295a.513.513,0,0,0-.512.513v.647a.513.513,0,0,0,.512.513h1.295a.783.783,0,0,1,.782.782v33.017a.783.783,0,0,1-.782.782H870.7a.783.783,0,0,1-.782-.782.135.135,0,0,1,.135-.135h20.716a2.457,2.457,0,0,0,2.455-2.455V159.581a.509.509,0,0,0-.15-.362L887.7,153.84a.509.509,0,0,0-.362-.15H868.113a2.458,2.458,0,0,0-2.455,2.455V188.19a2.084,2.084,0,0,0,2.131,2.131h.324a.135.135,0,0,1,.135.135,2.458,2.458,0,0,0,2.455,2.455h22.658a2.457,2.457,0,0,0,2.455-2.455V157.439A2.457,2.457,0,0,0,893.361,154.985Zm-26.03,1.16a.783.783,0,0,1,.782-.782h18.127a.135.135,0,0,1,.135.135v2.59a2.457,2.457,0,0,0,2.455,2.455h2.59a.135.135,0,0,1,.135.135v27.19a.783.783,0,0,1-.782.782H868.113a.783.783,0,0,1-.782-.782Zm22.849,2.641a.13.13,0,0,1-.125.083h-1.226a.783.783,0,0,1-.782-.782v-1.226a.13.13,0,0,1,.083-.124.143.143,0,0,1,.054-.011.128.128,0,0,1,.093.04l1.873,1.873A.13.13,0,0,1,890.179,158.786Z" fill="#2e4050"/>
    <path id="Path_103" data-name="Path 103" d="M978.356,318.228h-3.884a.836.836,0,0,0,0,1.672h3.884a.836.836,0,1,0,0-1.672Z" transform="translate(-94.383 -143.822)" fill="#2e4050"/>
    <path id="Path_104" data-name="Path 104" d="M892.2,319.9h7.121a.836.836,0,1,0,0-1.672H892.2a.836.836,0,1,0,0,1.672Z" transform="translate(-22.472 -143.822)" fill="#2e4050"/>
    <path id="Path_105" data-name="Path 105" d="M978.356,343.937h-3.884a.836.836,0,0,0,0,1.672h3.884a.836.836,0,1,0,0-1.672Z" transform="translate(-94.383 -166.294)" fill="#2e4050"/>
    <path id="Path_106" data-name="Path 106" d="M978.356,369.646h-3.884a.836.836,0,0,0,0,1.672h3.884a.836.836,0,1,0,0-1.672Z" transform="translate(-94.383 -188.766)" fill="#2e4050"/>
    <path id="Path_107" data-name="Path 107" d="M892.2,345.609h7.121a.836.836,0,1,0,0-1.672H892.2a.836.836,0,1,0,0,1.672Z" transform="translate(-22.472 -166.294)" fill="#2e4050"/>
    <path id="Path_108" data-name="Path 108" d="M892.2,371.318h7.121a.836.836,0,1,0,0-1.672H892.2a.836.836,0,1,0,0,1.672Z" transform="translate(-22.472 -188.766)" fill="#2e4050"/>
    <path id="Path_109" data-name="Path 109" d="M892.2,397.027h7.121a.836.836,0,1,0,0-1.673H892.2a.836.836,0,0,0,0,1.673Z" transform="translate(-22.472 -211.237)" fill="#2e4050"/>
    <path id="Path_110" data-name="Path 110" d="M978.356,395.354h-3.884a.836.836,0,0,0,0,1.673h3.884a.836.836,0,1,0,0-1.673Z" transform="translate(-94.383 -211.237)" fill="#2e4050"/>
    <path id="Path_111" data-name="Path 111" d="M1032.973,318.228h-1.942a.836.836,0,1,0,0,1.672h1.942a.836.836,0,0,0,0-1.672Z" transform="translate(-143.821 -143.822)" fill="#2e4050"/>
    <path id="Path_112" data-name="Path 112" d="M1032.973,343.937h-1.942a.836.836,0,1,0,0,1.672h1.942a.836.836,0,0,0,0-1.672Z" transform="translate(-143.821 -166.294)" fill="#2e4050"/>
    <path id="Path_113" data-name="Path 113" d="M1032.973,369.646h-1.942a.836.836,0,1,0,0,1.672h1.942a.836.836,0,0,0,0-1.672Z" transform="translate(-143.821 -188.766)" fill="#2e4050"/>
    <path id="Path_114" data-name="Path 114" d="M1032.973,395.354h-1.942a.836.836,0,1,0,0,1.673h1.942a.836.836,0,0,0,0-1.673Z" transform="translate(-143.821 -211.237)" fill="#2e4050"/>
    <path id="Path_115" data-name="Path 115" d="M933.134,184.308a.255.255,0,0,1,.244.184l1.111,3.889a.634.634,0,0,0,.608.458h5.482a.635.635,0,0,0,.608-.458l1.111-3.889a.255.255,0,0,1,.244-.184h.064a.633.633,0,0,0,.632-.632v-.409a.633.633,0,0,0-.632-.632h-.963a.253.253,0,0,1-.2-.1l-2.323-2.9a.629.629,0,0,0-.493-.237h-1.516a.628.628,0,0,0-.493.237l-2.324,2.9a.253.253,0,0,1-.2.1h-.963a.633.633,0,0,0-.632.632v.409A.633.633,0,0,0,933.134,184.308Zm3.582-2.085.845-1.056a.253.253,0,0,1,.2-.1h.222a.253.253,0,0,1,.2.1l.845,1.056a.254.254,0,0,1-.2.413h-1.912a.254.254,0,0,1-.2-.413Zm-1.507,2.186a.252.252,0,0,1,.2-.1h4.853a.254.254,0,0,1,.245.323l-.658,2.351a.255.255,0,0,1-.245.186H936.07a.255.255,0,0,1-.245-.186l-.659-2.351A.252.252,0,0,1,935.209,184.409Z" transform="translate(-58.428 -22.472)" fill="#2e4050"/>
    <path id="Path_116" data-name="Path 116" d="M892.2,294.191h19.422a.836.836,0,0,0,0-1.672H892.2a.836.836,0,1,0,0,1.672Z" transform="translate(-22.472 -121.35)" fill="#2e4050"/>
    <path id="Path_117" data-name="Path 117" d="M943.621,266.81a.836.836,0,1,0,0,1.672H950.1a.836.836,0,0,0,0-1.672Z" transform="translate(-67.416 -98.877)" fill="#2e4050"/>
  </g>
</svg>
