<svg xmlns="http://www.w3.org/2000/svg" width="22" height="22" viewBox="0 0 22 22">
  <g id="Group_721" data-name="Group 721" transform="translate(-16304 -5729)">
    <rect id="Rectangle_120" data-name="Rectangle 120" width="22" height="22" transform="translate(16304 5729)" fill="none"/>
    <g id="new" transform="translate(16308 5731)">
      <path id="Exclusion_1" data-name="Exclusion 1" d="M13.427,17.4H.515A.511.511,0,0,1,0,16.892V.512A.514.514,0,0,1,.515,0H8.328a.5.5,0,0,1,.361.145l5.1,5.1a.482.482,0,0,1,.151.356V16.892A.511.511,0,0,1,13.427,17.4ZM4.256,8.53a.819.819,0,1,0,0,1.637H6.167v1.911a.818.818,0,1,0,1.637,0V10.168H9.716a.819.819,0,1,0,0-1.637H7.8V6.619a.818.818,0,1,0-1.637,0V8.53Z" transform="translate(-0.001 0)" fill="#fff"/>
    </g>
  </g>
</svg>
