<svg xmlns="http://www.w3.org/2000/svg" width="22" height="22" viewBox="0 0 22 22">
  <g id="Group_721" data-name="Group 721" transform="translate(-16241 -5729)">
    <rect id="Rectangle_120" data-name="Rectangle 120" width="22" height="22" transform="translate(16241 5729)" fill="none"/>
    <g id="error" transform="translate(16244 5732)">
      <g id="Group_417" data-name="Group 417">
        <g id="Group_416" data-name="Group 416">
          <path id="Path_56" data-name="Path 56" d="M7.532,0a7.532,7.532,0,1,0,7.532,7.532A7.528,7.528,0,0,0,7.532,0Zm0,13.888a6.355,6.355,0,1,1,6.355-6.355A6.352,6.352,0,0,1,7.532,13.888Z" fill="#fff"/>
        </g>
      </g>
      <g id="Group_419" data-name="Group 419" transform="translate(4.783 4.783)">
        <g id="Group_418" data-name="Group 418">
          <path id="Path_57" data-name="Path 57" d="M167.882,167.05l-1.745-1.745,1.745-1.745a.588.588,0,1,0-.832-.832l-1.745,1.745-1.745-1.745a.588.588,0,1,0-.832.832l1.745,1.745-1.745,1.745a.588.588,0,1,0,.832.832l1.745-1.745,1.745,1.745a.588.588,0,1,0,.832-.832Z" transform="translate(-162.555 -162.556)" fill="#fff"/>
        </g>
      </g>
    </g>
  </g>
</svg>
