<svg xmlns="http://www.w3.org/2000/svg" width="22" height="22" viewBox="0 0 22 22">
  <g id="Group_721" data-name="Group 721" transform="translate(-16300 -5729)">
    <rect id="Rectangle_120" data-name="Rectangle 120" width="22" height="22" transform="translate(16300 5729)" fill="none"/>
    <g id="filter-filled-tool-symbol" transform="translate(16297.589 5731)">
      <path id="Path_2" data-name="Path 2" d="M11.108,8.41a1.1,1.1,0,0,1,.289.743v8.093a.55.55,0,0,0,.936.392l2.258-2.587c.3-.363.469-.542.469-.9v-5a1.107,1.107,0,0,1,.289-.743l6.478-7.029A.825.825,0,0,0,21.221,0H5.235a.824.824,0,0,0-.606,1.382Z" transform="translate(0)" fill="#26c0b7"/>
    </g>
  </g>
</svg>
