<svg xmlns="http://www.w3.org/2000/svg" width="40.881" height="40.88" viewBox="0 0 40.881 40.88">
  <g id="package" transform="translate(0 -0.002)">
    <g id="Group_456" data-name="Group 456" transform="translate(11.657 29.545)">
      <g id="Group_455" data-name="Group 455">
        <path id="Path_74" data-name="Path 74" d="M146.8,370a.8.8,0,1,0,.8.8A.8.8,0,0,0,146.8,370Z" transform="translate(-145.999 -370.002)" fill="#2e4050"/>
      </g>
    </g>
    <g id="Group_458" data-name="Group 458" transform="translate(0 0.002)">
      <g id="Group_457" data-name="Group 457" transform="translate(0 0)">
        <path id="Path_75" data-name="Path 75" d="M35.941,15.172l4.705-4.705a.8.8,0,0,0-.329-1.328L28.86,5.6A7.986,7.986,0,0,0,13.832,5L.56,9.14a.8.8,0,0,0-.327,1.327L5.062,15.3,2.017,20.372a.8.8,0,0,0,.432,1.168l4.417,1.472v12.28a.8.8,0,0,0,.518.748c2.7,1.013,12.736,4.776,12.79,4.8a.8.8,0,0,0,.511.007l.007,0,14.372-4.791a.8.8,0,0,0,.546-.757V22.684l4.711-1.48a.8.8,0,0,0,.325-1.326ZM29.223,7.986c0-.2-.009-.405-.024-.607l9.381,2.9L34.6,14.259l-6.51-2.17A8.007,8.007,0,0,0,29.223,7.986ZM15.2,5.908a6.387,6.387,0,0,1,12.43,2.078,6.387,6.387,0,0,1-6.388,6.388A6.393,6.393,0,0,1,15.2,5.908ZM2.3,10.272,13.339,6.829a8.051,8.051,0,0,0-.085,1.158,7.936,7.936,0,0,0,.885,3.654L6.283,14.259ZM3.9,20.341l2.525-4.208,12.82,4.273-2.525,4.208ZM19.641,38.932,8.463,34.74V23.545c8.795,2.916,8.365,2.827,8.61,2.827a.8.8,0,0,0,.685-.388l1.883-3.139Zm.8-19.81L8.593,15.173l6.451-2.15a7.982,7.982,0,0,0,12.031.413l5.213,1.737Zm13.574,15.6L21.238,38.976V22.239l2.831,3.538a.8.8,0,0,0,.863.263l9.082-2.854ZM24.974,24.353l-3.2-3.994L34.6,16.086l3.989,3.989Z" transform="translate(0 -0.002)" fill="#2e4050"/>
      </g>
    </g>
    <g id="Group_460" data-name="Group 460" transform="translate(14.672 30.6)">
      <g id="Group_459" data-name="Group 459">
        <path id="Path_76" data-name="Path 76" d="M186.611,383.936l-1.776-.666a.8.8,0,1,0-.561,1.5l1.776.666a.8.8,0,0,0,.561-1.5Z" transform="translate(-183.757 -383.219)" fill="#2e4050"/>
      </g>
    </g>
    <g id="Group_462" data-name="Group 462" transform="translate(11.657 32.88)">
      <g id="Group_461" data-name="Group 461">
        <path id="Path_77" data-name="Path 77" d="M151.865,413.626l-4.791-1.8a.8.8,0,0,0-.561,1.5l4.791,1.8a.8.8,0,0,0,.561-1.5Z" transform="translate(-145.995 -411.779)" fill="#2e4050"/>
      </g>
    </g>
    <g id="Group_464" data-name="Group 464" transform="translate(18.044 4.793)">
      <g id="Group_463" data-name="Group 463">
        <path id="Path_78" data-name="Path 78" d="M233.749,60.235a.8.8,0,0,0-1.129,0l-4.226,4.226-1.032-1.032a.8.8,0,1,0-1.129,1.129l1.6,1.6a.8.8,0,0,0,1.129,0l4.791-4.791A.8.8,0,0,0,233.749,60.235Z" transform="translate(-225.998 -60.001)" fill="#2e4050"/>
      </g>
    </g>
  </g>
</svg>
